<mxfile host="app.diagrams.net" modified="2024-05-08T08:15:56.410Z" agent="Mozilla/5.0 (X11; Linux x86_64) AppleWebKit/537.36 (KHTML, like Gecko) Chrome/124.0.0.0 Safari/537.36" version="24.3.1" etag="dL82VYDNJir2wn2oijMc" type="github">
  <diagram name="Page-1" id="BdedEPsrMDoiS6DCtM_B">
    <mxGraphModel>
      <root>
        <mxCell id="0" />
        <mxCell id="1" parent="0" />
      </root>
    </mxGraphModel>
  </diagram>
</mxfile>
